<svg height="512" viewBox="0 0 64 64" width="512" xmlns="http://www.w3.org/2000/svg"><g id="Call"><path d="m46 57h-28a4 4 0 0 1 -4-4v4a4 4 0 0 0 4 4h28a4 4 0 0 0 4-4v-4a4 4 0 0 1 -4 4z" fill="#58595b"/><rect fill="#6d6e71" height="54" rx="4" width="36" x="14" y="3"/><path d="m47 8v41a2.006 2.006 0 0 1 -2 2h-26a2.006 2.006 0 0 1 -2-2v-41a2.006 2.006 0 0 1 2-2h5a2.006 2.006 0 0 1 2 2 2.006 2.006 0 0 0 2 2h8a2.006 2.006 0 0 0 2-2 2.006 2.006 0 0 1 2-2h5a2.006 2.006 0 0 1 2 2z" fill="#ffcd00"/><path d="m47 8a2.006 2.006 0 0 0 -2-2h-5.08a1.978 1.978 0 0 0 -1.92 2.041 2 2 0 0 1 -2 1.959h-8.079a1.978 1.978 0 0 1 -1.921-2.041 2 2 0 0 0 -2-1.959h-5a2.006 2.006 0 0 0 -2 2v37.974l30-37.692z" fill="#ffda44"/><path d="m25.358 23.479h3v7h-3z" fill="#9bc9ff" transform="matrix(.707 -.707 .707 .707 -11.211 26.893)"/><path d="m35.964 34.086h3v7h-3z" fill="#9bc9ff" transform="matrix(.707 -.707 .707 .707 -15.604 37.5)"/><g fill="#006df0"><path d="m32.515 37.586a2 2 0 0 1 -2.829 0l-2.828-2.829a2 2 0 0 1 0-2.828l1.414-1.414-4.95-4.95-.707.707a6 6 0 0 0 0 8.485l7.071 7.071a6 6 0 0 0 8.486 0l.707-.707-4.95-4.949z"/><path d="m34 25a5.006 5.006 0 0 1 5 5 1 1 0 0 0 2 0 7.008 7.008 0 0 0 -7-7 1 1 0 0 0 0 2z"/><path d="m34 19a1 1 0 0 0 0 2 9.01 9.01 0 0 1 9 9 1 1 0 0 0 2 0 11.013 11.013 0 0 0 -11-11z"/><path d="m34 29a1 1 0 0 1 1 1 1 1 0 0 0 2 0 3 3 0 0 0 -3-3 1 1 0 0 0 0 2z"/></g><path d="m29 6h2v2h-2z" fill="#f1f2f2"/><path d="m33 6h2v2h-2z" fill="#f1f2f2"/><path d="m29 53h6v2h-6z" fill="#f1f2f2"/></g></svg>